<?xml version="1.0" encoding="utf-8"?>
<!-- Generator: Adobe Illustrator 27.7.0, SVG Export Plug-In . SVG Version: 6.00 Build 0)  -->
<svg version="1.1" id="Layer_1" xmlns="http://www.w3.org/2000/svg" xmlns:xlink="http://www.w3.org/1999/xlink" x="0px" y="0px"
	 width="250.1px" height="250.1px" viewBox="0 0 250.1 250.1" style="enable-background:new 0 0 250.1 250.1;" xml:space="preserve"
	>
<style type="text/css">
	.st0{fill:#003366;}
	.st1{fill:#FFC82E;}
</style>
<g>
	<path class="st0" d="M174.6,161c-0.6-26.6-22.6-57.1-52.6-73.6c12,12.4,21.2,28.7,26.1,46c5,17.7,5,35-0.1,47.5
		c-5.1,12.6-14.7,19.7-28,20.6c1.7,0.1,3.3,0.2,5,0.2c10.5,0,20.7-2.1,30.2-6.2C168.3,188.1,175,176.1,174.6,161"/>
	<path class="st0" d="M189.8,128.8c5.1,8.6,6.9,17.7,5.4,27c4.2-9.6,6.4-19.9,6.4-30.6c0-42.2-34.3-76.5-76.5-76.5
		c-42.2,0-76.5,34.3-76.5,76.5c0,9.9,1.8,19.5,5.5,28.6c5.5,10.1,15.8,16.5,26.9,16.5c8.6,0,16.8-3.9,23.2-10.9
		c9.1-10,18.9-30.9,14.7-73.9l-0.1-0.7l0.7,0.2C140.2,89.8,176,105.6,189.8,128.8"/>
	<path class="st0" d="M104.9,160c-6.6,7.3-15.1,11.3-23.9,11.3l0,0c-9.4,0-18.3-4.4-24.3-11.8c4.5,8.9,10.7,16.9,18.1,23.4
		c6.6,5,13.9,7.6,21.1,7.6h0c10.6,0,20.5-5.8,27-15.8c6-9.2,9.1-21.5,8.9-35.6c-0.2-15.4-4.1-32.3-11.7-50.5
		C123.6,129.7,113.8,150.1,104.9,160"/>
	<path class="st0" d="M132.9,139.1c0.2,14.3-3,26.8-9.1,36.2c-6.8,10.3-16.9,16.2-27.8,16.2l0,0c-4.7,0-9.5-1.1-14.1-3.2
		c8,5.5,17.1,9.5,26.5,11.6c3,0.5,5.9,0.8,8.6,0.8h0c14.4,0,24.8-7,30.1-20.1c5-12.3,5-29.3,0-46.8c-4.9-17.4-14.2-33.7-26.3-46.1
		C128.6,106.1,132.7,123.5,132.9,139.1"/>
	<path class="st0" d="M193.3,159.8c2.8-10.5,1.4-20.8-4.4-30.5c-12.8-21.5-44.7-36.5-65.6-42.4c14,7.8,26.8,19.1,36.2,32
		c10.1,13.8,15.9,28.8,16.2,42c0.3,13.1-4.5,23.8-14,31.4C175.2,185,186.2,173.6,193.3,159.8"/>
	<path class="st1" d="M174.1,138.9c-7.7,16.2-26.2,26.8-45.4,26.8c-17,0-32-8.9-40.6-22.2l22.2-16.6c3-2.3,3-5.7,3.1-8.1V85.2l8.2-6
		l32.6,9.3c2.4,0.7,5.6,1.5,8.6-0.7l13.7-9.8l-4.3-2.2l-2.7,1.2c-1.3,0.9-1.9,1.3-4.2,0.6l-36.7-10.3L99.9,88.5v37.9
		c0,2.4-0.5,3-1.8,4.1l-12.3,9c-3.3-6.5-5.2-13.9-5.2-21.8c0-18.9,10.9-35.3,26.8-43.2l-1.6-3c-22.7,7.2-39.2,28.5-39.2,53.6
		c0,31,25.2,56.2,56.2,56.2c25.6,0,47.2-17.1,54-40.6L174.1,138.9z"/>
</g>
</svg>
