<?xml version="1.0" encoding="UTF-8" standalone="no"?>
<!-- Created with Inkscape (http://www.inkscape.org/) -->

<svg
   xmlns:dc="http://purl.org/dc/elements/1.1/"
   xmlns:cc="http://creativecommons.org/ns#"
   xmlns:rdf="http://www.w3.org/1999/02/22-rdf-syntax-ns#"
   xmlns:svg="http://www.w3.org/2000/svg"
   xmlns="http://www.w3.org/2000/svg"
   xmlns:sodipodi="http://sodipodi.sourceforge.net/DTD/sodipodi-0.dtd"
   xmlns:inkscape="http://www.inkscape.org/namespaces/inkscape"
   width="18mm"
   height="18mm"
   viewBox="0 0 18 18"
   version="1.1"
   id="svg34254"
   inkscape:version="0.92.2 5c3e80d, 2017-08-06"
   sodipodi:docname="Caltrain roundel.svg">
  <defs
     id="defs34248">
    <clipPath
       clipPathUnits="userSpaceOnUse"
       id="clipPath32735">
      <path
         d="m 594,728.547 h 50.142 v 50.141 H 594 Z"
         id="path32733"
         inkscape:connector-curvature="0" />
    </clipPath>
  </defs>
  <sodipodi:namedview
     id="base"
     pagecolor="#ffffff"
     bordercolor="#666666"
     borderopacity="1.0"
     inkscape:pageopacity="0.0"
     inkscape:pageshadow="2"
     inkscape:zoom="5.6"
     inkscape:cx="1.2849422"
     inkscape:cy="34.141629"
     inkscape:document-units="mm"
     inkscape:current-layer="layer1"
     showgrid="false"
     fit-margin-top="0"
     fit-margin-left="0"
     fit-margin-right="0"
     fit-margin-bottom="0"
     inkscape:window-width="1440"
     inkscape:window-height="855"
     inkscape:window-x="0"
     inkscape:window-y="1"
     inkscape:window-maximized="1" />
  <metadata
     id="metadata34251">
    <rdf:RDF>
      <cc:Work
         rdf:about="">
        <dc:format>image/svg+xml</dc:format>
        <dc:type
           rdf:resource="http://purl.org/dc/dcmitype/StillImage" />
        <dc:title></dc:title>
      </cc:Work>
    </rdf:RDF>
  </metadata>
  <g
     inkscape:label="Layer 1"
     inkscape:groupmode="layer"
     id="layer1"
     transform="translate(-115.8877,-89.784795)">
    <g
       transform="matrix(0.35277777,0,0,-0.35277777,-93.506734,364.6443)"
       id="g32729">
      <g
         id="g32731"
         clip-path="url(#clipPath32735)">
        <g
           id="g32737"
           transform="translate(636.798,771.3453)">
          <path
             d="m 0,0 c 4.736,-4.736 7.343,-11.031 7.343,-17.728 0,-6.696 -2.607,-12.991 -7.343,-17.727 -4.735,-4.736 -11.031,-7.343 -17.728,-7.343 -6.696,0 -12.992,2.607 -17.727,7.343 -4.735,4.736 -7.343,11.031 -7.343,17.727 0,13.824 11.246,25.071 25.07,25.071 C -11.031,7.343 -4.735,4.735 0,0"
             style="fill:#ffffff;fill-opacity:1;fill-rule:nonzero;stroke:none"
             id="path32739"
             inkscape:connector-curvature="0" />
        </g>
        <g
           id="g32741"
           transform="translate(632.8397,767.3865)">
          <path
             d="M 0,0 C -3.678,3.678 -8.568,5.703 -13.769,5.703 -18.97,5.703 -23.86,3.678 -27.538,0 c -3.678,-3.678 -5.703,-8.568 -5.703,-13.769 0,-5.201 2.025,-10.091 5.703,-13.769 3.678,-3.678 8.568,-5.703 13.769,-5.703 10.737,0 19.472,8.735 19.472,19.472 C 5.703,-8.568 3.678,-3.678 0,0 m 3.958,3.959 c 4.736,-4.736 7.344,-11.031 7.344,-17.728 0,-6.696 -2.608,-12.992 -7.344,-17.728 -4.735,-4.735 -11.031,-7.343 -17.727,-7.343 -6.697,0 -12.993,2.608 -17.727,7.343 -4.735,4.736 -7.344,11.032 -7.344,17.728 0,13.824 11.247,25.071 25.071,25.071 6.696,0 12.992,-2.608 17.727,-7.343"
             style="fill:#000000;fill-opacity:1;fill-rule:nonzero;stroke:none"
             id="path32743"
             inkscape:connector-curvature="0" />
        </g>
        <g
           id="g32745"
           transform="translate(607.3123,753.2263)">
          <path
             d="m 0,0 c 1.453,7.474 6.242,13.664 14.395,13.664 1.534,0 2.871,-0.214 4.016,-0.62 -1.979,1.038 -4.231,1.627 -6.621,1.627 -7.883,0 -14.273,-6.391 -14.273,-14.273 0,-3.612 1.343,-6.91 3.556,-9.425 C -0.347,-6.718 -0.693,-3.564 0,0"
             style="fill:#e03a3e;fill-opacity:1;fill-rule:nonzero;stroke:none"
             id="path32747"
             inkscape:connector-curvature="0" />
        </g>
        <g
           id="g32749"
           transform="translate(629.2496,763.6597)">
          <path
             d="M 0,0 C 1.226,-1.762 1.682,-4.189 1.348,-7.15 L 1.328,-7.151 1.247,-7.628 h -7.366 c 0.45,2.629 0.032,5.046 -2.477,5.046 -3.511,0 -4.711,-5.398 -5.188,-7.851 -0.506,-2.605 -1.214,-7.021 2.372,-7.021 2.281,0 3.617,1.86 4.419,4.322 h 7.285 c -1.848,-6.436 -6.937,-10.286 -12.901,-10.286 -1.412,0 -2.663,0.187 -3.762,0.535 1.882,-0.912 3.993,-1.425 6.223,-1.425 7.883,0 14.273,6.39 14.273,14.273 C 4.125,-6.123 2.55,-2.579 0,0"
             style="fill:#e03a3e;fill-opacity:1;fill-rule:nonzero;stroke:none"
             id="path32751"
             inkscape:connector-curvature="0" />
        </g>
        <g
           id="g32753"
           transform="translate(638.8215,736.0574)">
          <path
             d="m 0,0 v -2.042 h 0.349 v 0.806 h 0.29 c 0.195,0 0.332,-0.022 0.409,-0.066 0.132,-0.076 0.197,-0.233 0.197,-0.469 V -1.933 L 1.253,-1.998 C 1.254,-2.007 1.256,-2.014 1.258,-2.022 1.259,-2.028 1.26,-2.035 1.262,-2.042 H 1.594 L 1.582,-2.016 C 1.573,-1.999 1.569,-1.964 1.565,-1.91 1.562,-1.856 1.56,-1.805 1.56,-1.758 v 0.149 c 0,0.103 -0.037,0.208 -0.11,0.316 -0.074,0.108 -0.191,0.175 -0.35,0.199 0.125,0.021 0.224,0.054 0.295,0.1 0.133,0.086 0.199,0.22 0.199,0.403 0,0.257 -0.106,0.43 -0.319,0.518 C 1.158,-0.024 0.971,0 0.717,0 Z M 1.245,-0.623 C 1.245,-0.78 1.174,-0.886 1.03,-0.942 0.952,-0.972 0.836,-0.987 0.681,-0.987 H 0.349 v 0.738 h 0.313 c 0.204,0 0.352,-0.025 0.445,-0.076 0.092,-0.05 0.138,-0.15 0.138,-0.298 m 1.37,-0.4 c 0,0.513 -0.182,0.95 -0.546,1.311 C 1.706,0.649 1.267,0.83 0.752,0.83 c -0.513,0 -0.949,-0.181 -1.311,-0.542 -0.363,-0.363 -0.545,-0.8 -0.545,-1.311 0,-0.516 0.18,-0.956 0.54,-1.318 0.362,-0.365 0.801,-0.547 1.316,-0.547 0.515,0 0.954,0.182 1.317,0.547 0.364,0.364 0.546,0.804 0.546,1.318 M 0.754,0.581 c 0.446,0 0.826,-0.157 1.142,-0.472 0.313,-0.313 0.47,-0.691 0.47,-1.134 0,-0.447 -0.157,-0.828 -0.47,-1.143 -0.313,-0.314 -0.694,-0.471 -1.142,-0.471 -0.448,0 -0.828,0.157 -1.141,0.471 -0.312,0.315 -0.468,0.696 -0.468,1.143 0,0.443 0.157,0.821 0.47,1.134 0.315,0.315 0.695,0.472 1.139,0.472"
             style="fill:#000000;fill-opacity:1;fill-rule:nonzero;stroke:none"
             id="path32755"
             inkscape:connector-curvature="0" />
        </g>
        <g
           id="g32757"
           transform="translate(638.8215,736.0574)">
          <path
             d="m 0,0 v -2.042 h 0.349 v 0.806 h 0.29 c 0.195,0 0.332,-0.022 0.409,-0.066 0.132,-0.076 0.197,-0.233 0.197,-0.469 V -1.933 L 1.253,-1.998 C 1.254,-2.007 1.256,-2.014 1.258,-2.022 1.259,-2.028 1.26,-2.035 1.262,-2.042 H 1.594 L 1.582,-2.016 C 1.573,-1.999 1.569,-1.964 1.565,-1.91 1.562,-1.856 1.56,-1.805 1.56,-1.758 v 0.149 c 0,0.103 -0.037,0.208 -0.11,0.316 -0.074,0.108 -0.191,0.175 -0.35,0.199 0.125,0.021 0.224,0.054 0.295,0.1 0.133,0.086 0.199,0.22 0.199,0.403 0,0.257 -0.106,0.43 -0.319,0.518 C 1.158,-0.024 0.971,0 0.717,0 Z M 1.245,-0.623 C 1.245,-0.78 1.174,-0.886 1.03,-0.942 0.952,-0.972 0.836,-0.987 0.681,-0.987 H 0.349 v 0.738 h 0.313 c 0.204,0 0.352,-0.025 0.445,-0.076 0.092,-0.05 0.138,-0.15 0.138,-0.298 z m 1.37,-0.4 c 0,0.513 -0.182,0.95 -0.546,1.311 C 1.706,0.649 1.267,0.83 0.752,0.83 c -0.513,0 -0.949,-0.181 -1.311,-0.542 -0.363,-0.363 -0.545,-0.8 -0.545,-1.311 0,-0.516 0.18,-0.956 0.54,-1.318 0.362,-0.365 0.801,-0.547 1.316,-0.547 0.515,0 0.954,0.182 1.317,0.547 0.364,0.364 0.546,0.804 0.546,1.318 z M 0.754,0.581 c 0.446,0 0.826,-0.157 1.142,-0.472 0.313,-0.313 0.47,-0.691 0.47,-1.134 0,-0.447 -0.157,-0.828 -0.47,-1.143 -0.313,-0.314 -0.694,-0.471 -1.142,-0.471 -0.448,0 -0.828,0.157 -1.141,0.471 -0.312,0.315 -0.468,0.696 -0.468,1.143 0,0.443 0.157,0.821 0.47,1.134 0.315,0.315 0.695,0.472 1.139,0.472 z"
             style="fill:none;stroke:#000000;stroke-width:0.054;stroke-linecap:butt;stroke-linejoin:miter;stroke-miterlimit:4;stroke-dasharray:none;stroke-opacity:1"
             id="path32759"
             inkscape:connector-curvature="0" />
        </g>
      </g>
    </g>
  </g>
</svg>
